<svg id="eDlapM7HnjX1" xmlns="http://www.w3.org/2000/svg" xmlns:xlink="http://www.w3.org/1999/xlink" viewBox="0 0 300 300" shape-rendering="geometricPrecision" text-rendering="geometricPrecision" project-id="a36fe06c6d614314ac1a7d75cc2bdcec" export-id="d328f62a078546bcafc70d8f9c5e375a" cached="false"><path d="M81.5,55C63.18,62.28,57.28,89.713839,50,108.033839C42.72,89.713839,36.82,62.28,18.5,55C36.82,47.72,42.72,41.82,50,23.5C57.28,41.82,63.18,47.72,81.5,55Z" transform="matrix(1 0 0 0.976874 100 69.407582)" fill="#facc00"/><path d="M81.5,55C63.18,62.28,57.28,89.713839,50,108.033839C42.72,89.713839,36.82,62.28,18.5,55C36.82,47.72,42.72,41.82,50,23.5C57.28,41.82,63.18,47.72,81.5,55Z" transform="matrix(.455632 0 0 0.437367 158.7184 123.375452)" fill="#facc00"/><path d="M81.5,55C63.18,62.28,57.28,89.713839,50,108.033839C42.72,89.713839,36.82,62.28,18.5,55C36.82,47.72,42.72,41.82,50,23.5C57.28,41.82,63.18,47.72,81.5,55Z" transform="matrix(.455632 0 0 0.437367 99.9191 139.721875)" fill="#facc00"/><path d="" fill="none" stroke="#3f5787" stroke-width="0.6"/><path d="" fill="none" stroke="#3f5787" stroke-width="0.6"/></svg>
